<svg width="56" height="56" viewBox="0 0 56 56" fill="none" xmlns="http://www.w3.org/2000/svg">
<path d="M0 5C0 2.23858 2.23858 0 5 0H51C53.7614 0 56 2.23858 56 5V51C56 53.7614 53.7614 56 51 56H5C2.23858 56 0 53.7614 0 51V5Z" fill="white"/>
<path d="M45.8887 0V0.5H51C53.4853 0.5 55.5 2.51472 55.5 5V10.1113H56V15.2227H55.5V25.4443H56V30.5557H55.5V40.7773H56V45.8887H55.5V51C55.5 53.4853 53.4853 55.5 51 55.5H45.8887V56H40.7773V55.5H30.5557V56H25.4443V55.5H15.2227V56H10.1113V55.5H5C2.51472 55.5 0.5 53.4853 0.5 51V45.8887H0V40.7773H0.5V30.5557H0V25.4443H0.5V15.2227H0V10.1113H0.5V5C0.500001 2.51472 2.51472 0.5 5 0.5H10.1113V0H15.2227V0.5H25.4443V0H30.5557V0.5H40.7773V0H45.8887Z" stroke="black" stroke-opacity="0.2" stroke-dasharray="10 5"/>
<path d="M31.7 21.5267C32.22 21.5267 32.7 21.648 33.14 21.8501C34.48 22.4768 35.47 23.9624 35.47 25.7311C35.47 27.4998 34.74 28.9349 33.7 30.1376C32.63 31.3605 31.29 32.3207 30.06 33.301C29.63 33.6446 29.25 33.9478 28.89 34.1601C28.52 34.3824 28.23 34.4734 27.98 34.4734C27.73 34.4734 27.43 34.3723 27.07 34.1601L25.9 33.301C24.67 32.3207 23.33 31.3504 22.26 30.1376C21.22 28.945 20.49 27.5402 20.49 25.7311C20.49 23.922 21.47 22.4667 22.82 21.8501C23.26 21.648 23.74 21.5267 24.26 21.5267C25.29 21.5267 26.44 21.9916 27.55 23.164C27.67 23.2853 27.83 23.356 27.99 23.356C28.15 23.356 28.29 23.2954 28.41 23.1842C28.41 23.1842 28.42 23.1741 28.43 23.164C29.54 21.9916 30.69 21.5267 31.72 21.5267M31.72 19.0001C30.75 19.0001 29.41 19.2426 28 20.223C26.59 19.2325 25.25 19.0001 24.27 19.0001C23.41 19.0001 22.57 19.182 21.78 19.5559C19.48 20.6272 18 23.0528 18 25.7311C18 27.9647 18.78 29.9557 20.4 31.8052C21.42 32.9675 22.61 33.9074 23.66 34.7261C23.89 34.908 24.13 35.0899 24.36 35.2718C24.39 35.292 24.42 35.3122 24.45 35.3426L25.62 36.2016C25.68 36.2522 25.75 36.2926 25.82 36.333C26.57 36.7777 27.29 37.0001 28 37.0001C28.71 37.0001 29.43 36.7777 30.18 36.333C30.68 36.0399 31.14 35.6761 31.64 35.2718C31.87 35.0899 32.1 34.908 32.34 34.7261C33.39 33.8973 34.58 32.9675 35.6 31.8052C37.21 29.9557 38 27.9647 38 25.7311C38 23.0427 36.51 20.6171 34.22 19.5559C33.43 19.1921 32.6 19.0001 31.73 19.0001H31.72Z" fill="black" fill-opacity="0.9"/>
</svg>
