<svg width="56" height="56" viewBox="0 0 56 56" fill="none" xmlns="http://www.w3.org/2000/svg">
<path d="M0 5C0 2.23858 2.23858 0 5 0H51C53.7614 0 56 2.23858 56 5V51C56 53.7614 53.7614 56 51 56H5C2.23858 56 0 53.7614 0 51V5Z" fill="white"/>
<path d="M45.8887 0V0.5H51C53.4853 0.5 55.5 2.51472 55.5 5V10.1113H56V15.2227H55.5V25.4443H56V30.5557H55.5V40.7773H56V45.8887H55.5V51C55.5 53.4853 53.4853 55.5 51 55.5H45.8887V56H40.7773V55.5H30.5557V56H25.4443V55.5H15.2227V56H10.1113V55.5H5C2.51472 55.5 0.5 53.4853 0.5 51V45.8887H0V40.7773H0.5V30.5557H0V25.4443H0.5V15.2227H0V10.1113H0.5V5C0.500001 2.51472 2.51472 0.5 5 0.5H10.1113V0H15.2227V0.5H25.4443V0H30.5557V0.5H40.7773V0H45.8887Z" stroke="black" stroke-opacity="0.2" stroke-dasharray="10 5"/>
<path d="M35.5476 24.0322C36.3492 24.0322 36.9996 24.6827 36.9998 25.4844V31.6768C36.9998 34.6072 34.6087 37 31.6794 37H25.49C24.6885 36.9998 24.0388 36.3486 24.0388 35.5469C24.0391 34.7454 24.6886 34.095 25.49 34.0947H31.6794C33.0149 34.0947 34.0955 33.0132 34.0955 31.6768V25.4844C34.0956 24.6827 34.746 24.0323 35.5476 24.0322Z" fill="black" fill-opacity="0.9"/>
<path d="M30.5095 19C31.311 19.0002 31.9607 19.6514 31.9607 20.4531C31.9605 21.2546 31.3109 21.905 30.5095 21.9053H24.3201C22.9846 21.9053 21.9041 22.9868 21.9041 24.3232V30.5156C21.9039 31.3173 21.2535 31.9677 20.4519 31.9678C19.6503 31.9678 18.9999 31.3173 18.9998 30.5156V24.3232C18.9998 21.3928 21.3909 19 24.3201 19H30.5095Z" fill="black" fill-opacity="0.9"/>
<path d="M25.9832 25.0489H29.8513C30.3832 25.0489 30.8184 25.4843 30.8184 26.0165V29.8867C30.8184 30.4189 30.3832 30.8543 29.8513 30.8543H25.9832C25.4513 30.8543 25.0161 30.4189 25.0161 29.8867V26.0165C25.0161 25.4843 25.4513 25.0489 25.9832 25.0489Z" fill="black" fill-opacity="0.9"/>
</svg>
