<svg width="200" height="56" viewBox="0 0 200 56" fill="none" xmlns="http://www.w3.org/2000/svg">
<rect width="200" height="56" rx="6" fill="white"/>
<rect x="0.5" y="0.5" width="199" height="55" rx="5.5" stroke="black" stroke-opacity="0.2" stroke-dasharray="10 5"/>
<path d="M34.7541 26.6246H24.1788L27.9066 22.34C28.385 21.7878 28.3651 20.9154 27.8767 20.3854C27.3783 19.8553 26.5909 19.8774 26.1124 20.4185L20.3513 27.0442C19.8829 27.5743 19.8829 28.4246 20.3513 28.9547L26.1124 35.5804C26.3616 35.8564 26.6806 36 27.0095 36C27.3384 36 27.6275 35.8675 27.8767 35.6135C28.375 35.0834 28.385 34.2111 27.9066 33.6589L24.1788 29.3743H34.7541C35.4418 29.3743 36 28.7559 36 27.9939C36 27.232 35.4418 26.6136 34.7541 26.6136V26.6246Z" fill="black" fill-opacity="0.9"/>
<path d="M69.2459 29.3754H79.8212L76.0934 33.66C75.615 34.2122 75.6349 35.0846 76.1233 35.6146C76.6217 36.1447 77.4091 36.1226 77.8876 35.5815L83.6487 28.9558C84.1171 28.4257 84.1171 27.5754 83.6487 27.0453L77.8876 20.4196C77.6384 20.1436 77.3194 20 76.9905 20C76.6616 20 76.3725 20.1325 76.1233 20.3865C75.625 20.9166 75.615 21.7889 76.0934 22.3411L79.8212 26.6257H69.2459C68.5582 26.6257 68 27.2441 68 28.0061C68 28.768 68.5582 29.3864 69.2459 29.3864V29.3754Z" fill="black" fill-opacity="0.9"/>
<path d="M125.375 34.7541V24.1788L129.66 27.9066C130.212 28.385 131.085 28.3651 131.615 27.8767C132.145 27.3783 132.123 26.5909 131.581 26.1124L124.956 20.3513C124.426 19.8829 123.575 19.8829 123.045 20.3513L116.42 26.1124C116.144 26.3616 116 26.6806 116 27.0095C116 27.3384 116.133 27.6275 116.387 27.8767C116.917 28.375 117.789 28.385 118.341 27.9066L122.626 24.1788V34.7541C122.626 35.4418 123.244 36 124.006 36C124.768 36 125.386 35.4418 125.386 34.7541H125.375Z" fill="black" fill-opacity="0.9"/>
<path d="M170.625 21.2459V31.8212L166.34 28.0934C165.788 27.615 164.915 27.6349 164.385 28.1233C163.855 28.6217 163.877 29.4091 164.419 29.8876L171.044 35.6487C171.574 36.1171 172.425 36.1171 172.955 35.6487L179.58 29.8876C179.856 29.6384 180 29.3194 180 28.9905C180 28.6616 179.867 28.3725 179.613 28.1233C179.083 27.625 178.211 27.615 177.659 28.0934L173.374 31.8212V21.2459C173.374 20.5582 172.756 20 171.994 20C171.232 20 170.614 20.5582 170.614 21.2459H170.625Z" fill="black" fill-opacity="0.9"/>
</svg>
