<svg width="56" height="56" viewBox="0 0 56 56" fill="none" xmlns="http://www.w3.org/2000/svg">
<path d="M0 5C0 2.23858 2.23858 0 5 0H51C53.7614 0 56 2.23858 56 5V51C56 53.7614 53.7614 56 51 56H5C2.23858 56 0 53.7614 0 51V5Z" fill="white"/>
<path d="M45.8887 0V0.5H51C53.4853 0.5 55.5 2.51472 55.5 5V10.1113H56V15.2227H55.5V25.4443H56V30.5557H55.5V40.7773H56V45.8887H55.5V51C55.5 53.4853 53.4853 55.5 51 55.5H45.8887V56H40.7773V55.5H30.5557V56H25.4443V55.5H15.2227V56H10.1113V55.5H5C2.51472 55.5 0.5 53.4853 0.5 51V45.8887H0V40.7773H0.5V30.5557H0V25.4443H0.5V15.2227H0V10.1113H0.5V5C0.500001 2.51472 2.51472 0.5 5 0.5H10.1113V0H15.2227V0.5H25.4443V0H30.5557V0.5H40.7773V0H45.8887Z" stroke="black" stroke-opacity="0.2" stroke-dasharray="10 5"/>
<path d="M28 20.9478C23.0373 20.9478 19 24.9945 19 29.9688C19 34.9431 23.0373 39 28 39C32.9627 39 37 34.9532 37 29.9688C37 24.9843 32.9627 20.9478 28 20.9478ZM28 36.4618C24.4407 36.4618 21.5424 33.5568 21.5424 29.979C21.5424 26.4011 24.4407 23.4961 28 23.4961C31.5593 23.4961 34.4678 26.4011 34.4678 29.979C34.4678 33.5568 31.5695 36.4618 28 36.4618Z" fill="black" fill-opacity="0.9"/>
<path d="M25.4577 19.5482H30.5425C31.2442 19.5482 31.8136 18.9774 31.8136 18.274C31.8136 17.5707 31.2442 16.9999 30.5425 16.9999H25.4577C24.756 16.9999 24.1865 17.5707 24.1865 18.274C24.1865 18.9774 24.756 19.5482 25.4577 19.5482Z" fill="black" fill-opacity="0.9"/>
<path d="M29.3222 27.5936C29.2307 27.6241 29.1392 27.6547 29.0476 27.6853C28.8951 27.7363 28.7324 27.7872 28.59 27.8382C28.0307 28.0217 27.5324 28.1848 27.0443 28.4498C26.5256 28.725 26.1392 29.2551 26.0782 29.8768C25.9765 30.886 26.6985 31.7932 27.6951 31.8951C28.3256 31.9664 28.9154 31.6912 29.2917 31.2427C29.6883 30.7738 29.8205 30.519 30.2171 29.8055H30.2375C30.3087 29.6832 30.3798 29.5608 30.451 29.408C30.5731 29.1837 30.6849 28.99 30.7866 28.8066C31.3053 27.8994 31.5697 27.4101 31.4273 27.2062C31.2341 26.9412 30.2476 27.2776 29.3426 27.5834L29.3222 27.5936Z" fill="black" fill-opacity="0.9"/>
</svg>
