<svg width="56" height="56" viewBox="0 0 56 56" fill="none" xmlns="http://www.w3.org/2000/svg">
<path d="M0 5C0 2.23858 2.23858 0 5 0H51C53.7614 0 56 2.23858 56 5V51C56 53.7614 53.7614 56 51 56H5C2.23858 56 0 53.7614 0 51V5Z" fill="white"/>
<path d="M45.8887 0V0.5H51C53.4853 0.5 55.5 2.51472 55.5 5V10.1113H56V15.2227H55.5V25.4443H56V30.5557H55.5V40.7773H56V45.8887H55.5V51C55.5 53.4853 53.4853 55.5 51 55.5H45.8887V56H40.7773V55.5H30.5557V56H25.4443V55.5H15.2227V56H10.1113V55.5H5C2.51472 55.5 0.5 53.4853 0.5 51V45.8887H0V40.7773H0.5V30.5557H0V25.4443H0.5V15.2227H0V10.1113H0.5V5C0.500001 2.51472 2.51472 0.5 5 0.5H10.1113V0H15.2227V0.5H25.4443V0H30.5557V0.5H40.7773V0H45.8887Z" stroke="black" stroke-opacity="0.2" stroke-dasharray="10 5"/>
<path fill-rule="evenodd" clip-rule="evenodd" d="M30.1558 29.9525L25.7347 30.0027C25.3007 30.0027 24.9777 30.4545 25.1594 30.836C25.1695 30.8662 25.1897 30.8862 25.1998 30.9164C25.7549 31.7898 26.7542 32.3521 27.9251 32.3521C29.0959 32.3521 30.1457 31.7698 30.6908 30.8561C30.7109 30.826 30.721 30.8059 30.7311 30.7758C30.9027 30.3842 30.5696 29.9425 30.1457 29.9525H30.1558Z" fill="black" fill-opacity="0.9"/>
<path fill-rule="evenodd" clip-rule="evenodd" d="M25.2302 27.6139C25.9569 27.6139 26.5423 27.0316 26.5423 26.3087C26.5423 25.5858 25.9569 25.0035 25.2302 25.0035C24.5034 25.0035 23.918 25.5858 23.918 26.3087C23.918 27.0316 24.5034 27.6139 25.2302 27.6139Z" fill="black" fill-opacity="0.9"/>
<path fill-rule="evenodd" clip-rule="evenodd" d="M32.0019 26.3083C32.0019 27.0311 31.4164 27.6135 30.6897 27.6135C29.9629 27.6135 29.3775 27.0311 29.3775 26.3083C29.3775 25.5854 29.9629 25.0031 30.6897 25.0031C31.4164 25.0031 32.0019 25.5854 32.0019 26.3083Z" fill="black" fill-opacity="0.9"/>
<path fill-rule="evenodd" clip-rule="evenodd" d="M27.877 18.1706L28.9974 18.1706C29.6971 18.1706 30.2643 18.7348 30.2643 19.4308C30.2643 20.1268 29.6971 20.691 28.9974 20.691H27.9678C25.8831 20.691 24.4467 20.6937 23.3657 20.838C22.3232 20.9771 21.8 21.2273 21.4329 21.5887C21.0729 21.9477 20.8216 22.4628 20.6817 23.5002C20.5366 24.5753 20.534 26.0065 20.534 28.0852C20.534 30.1639 20.5366 31.5951 20.6817 32.6702C20.8218 33.7092 21.0737 34.2244 21.4347 34.5834C21.7957 34.9425 22.3136 35.193 23.3582 35.3324C24.4391 35.4767 25.8779 35.4794 27.9678 35.4794C30.0577 35.4794 31.4965 35.4767 32.5774 35.3324C33.622 35.193 34.1399 34.9425 34.5009 34.5834C34.8619 34.2244 35.1138 33.7092 35.2539 32.6702C35.399 31.5951 35.4016 30.1639 35.4016 28.0852V26.8503C35.4016 26.1543 35.9689 25.5901 36.6686 25.5901C37.3683 25.5901 37.9356 26.1543 37.9356 26.8503V28.1758C37.9356 30.1418 37.9357 31.743 37.7654 33.0054C37.5876 34.3233 37.2035 35.4597 36.2927 36.3657C35.3818 37.2716 34.2393 37.6536 32.9144 37.8305C31.6453 37.9999 30.0355 37.9998 28.0589 37.9998H27.8767C25.9001 37.9998 24.2903 37.9999 23.0212 37.8305C21.6962 37.6536 20.5537 37.2716 19.6429 36.3657C18.7321 35.4597 18.348 34.3233 18.1702 33.0054C17.9999 31.743 18 30.1418 18 28.1758V27.9946C18 26.0286 17.9999 24.4274 18.1702 23.165C18.348 21.8471 18.7321 20.7107 19.6429 19.8047L19.6464 19.8012C20.5611 18.8986 21.7035 18.5168 23.0287 18.3399C24.2979 18.1705 25.9052 18.1706 27.877 18.1706Z" fill="black" fill-opacity="0.9"/>
<path d="M31.4593 21.4088C32.3274 21.0975 33.8212 20.2642 34.4874 18.1358C34.5379 17.9551 34.7902 17.9551 34.8407 18.1358C35.1132 19.0695 35.8602 20.6056 37.8587 21.3385C38.0404 21.3987 38.0505 21.6598 37.8688 21.7301C37.031 22.0714 35.5473 22.9148 34.8912 24.8625C34.8306 25.0533 34.548 25.0533 34.4874 24.8625C34.1846 23.9388 33.4074 22.4931 31.4593 21.8003C31.2776 21.7401 31.2776 21.4891 31.4593 21.4289V21.4088Z" fill="black" fill-opacity="0.9"/>
</svg>
